<svg width="157" height="163" viewBox="0 0 157 163" fill="none" xmlns="http://www.w3.org/2000/svg">
<g id="Group 504">
<circle id="Ellipse 13" opacity="0.1" cx="100.861" cy="106.57" r="56.1394" fill="#07086C"/>
<circle id="Ellipse 14" opacity="0.1" cx="53.2848" cy="97.0546" r="53.2848" fill="#07086C"/>
<circle id="Ellipse 15" opacity="0.1" cx="90.3942" cy="53.2848" r="53.2848" fill="#07086C"/>
<g id="Ellipse 12">
<circle cx="81.1394" cy="82.1394" r="56.1394" fill="#07086C"/>
<circle cx="81.1394" cy="82.1394" r="56.1394" fill="url(#paint0_linear_6_95)"/>
</g>
<g id="Group">
<path id="Vector" d="M94.6076 91.514L89.966 89.9671L88.2997 86.6344C89.8009 85.1064 90.8432 83.0848 91.1946 80.9761L91.4024 79.7305H93.1797C94.7951 79.7305 96.1094 78.4162 96.1094 76.8008V70.6484C96.1094 62.5713 89.5381 56 81.4609 56C73.3631 56 66.8125 62.5524 66.8125 70.6484V76.8008C66.8125 78.0738 67.629 79.1594 68.7656 79.5625V80.707C68.7656 82.3225 70.0799 83.6367 71.6953 83.6367H72.5529C72.9763 84.5563 73.5242 85.4081 74.191 86.1732C74.3293 86.3322 74.4735 86.4863 74.6213 86.6362L72.9559 89.9671L68.3142 91.5141C62.9172 93.3137 59 98.9952 59 105.023C59 105.563 59.4372 106 59.9766 106H102.945C103.485 106 103.922 105.563 103.922 105.023C103.922 98.9952 100.005 93.3137 94.6076 91.514ZM94.1562 76.8008C94.1562 77.3393 93.7182 77.7773 93.1797 77.7773H91.6893C91.9375 75.8545 92.1029 73.8083 92.1694 71.793C92.1714 71.7361 92.173 71.6809 92.1747 71.625H94.1562V76.8008ZM69.7422 77.7773C69.2037 77.7773 68.7656 77.3393 68.7656 76.8008V71.625H70.7479C70.7511 71.7269 70.7545 71.8292 70.7583 71.9322C70.7584 71.9357 70.7586 71.9392 70.7587 71.9427C70.7587 71.943 70.7587 71.9433 70.7587 71.9436C70.8271 73.9037 70.9903 75.8968 71.2329 77.7772H69.7422V77.7773ZM71.6953 81.6836C71.1568 81.6836 70.7188 81.2455 70.7188 80.707V79.7305H71.5193L71.7271 80.9765C71.7668 81.2133 71.8155 81.4492 71.8719 81.6836H71.6953ZM70.7204 69.6719H68.8027C69.2974 63.1269 74.7595 57.9531 81.4609 57.9531C88.1326 57.9531 93.6187 63.1262 94.119 69.6719H92.2016C92.1313 64.2786 87.7394 59.9062 82.3351 59.9062H80.587C75.1828 59.9062 70.7906 64.2786 70.7204 69.6719ZM80.5869 61.8594H82.335C86.7108 61.8594 90.2525 65.4386 90.25 69.8096C90.25 70.1169 90.2476 70.3845 90.2424 70.6279C90.2424 70.6311 90.2423 70.6343 90.2423 70.6375L89.0208 70.463C85.7024 69.9892 82.5692 68.4226 80.1983 66.0517C80.0151 65.8686 79.7668 65.7656 79.5078 65.7656C76.8852 65.7656 74.3746 66.9605 72.715 68.9793C73.124 65.0028 76.4856 61.8594 80.5869 61.8594ZM73.8965 81.6836C73.4076 80.0573 72.8482 75.2722 72.7246 72.2058L74.039 70.4532C75.2461 68.8442 77.1241 67.8445 79.1219 67.7298C81.7505 70.2313 85.1511 71.8833 88.7446 72.3964L90.1823 72.6019C90.0862 74.6414 89.8898 76.6881 89.6085 78.5704C89.6084 78.571 89.6083 78.5717 89.6082 78.5724C89.5188 79.1775 89.4482 79.567 89.2682 80.6548C88.751 83.7568 86.4363 86.562 83.3808 87.326C82.1232 87.6399 80.7984 87.6398 79.5416 87.326C77.6337 86.849 75.8843 85.5289 74.7553 83.6367H76.7461C77.1492 84.7733 78.2347 85.5898 79.5078 85.5898H81.4609C83.0796 85.5898 84.3906 84.2789 84.3906 82.6602C84.3906 81.0447 83.0764 79.7305 81.4609 79.7305H79.5078C78.2063 79.7305 77.1369 80.5711 76.7444 81.6836H73.8965ZM79.4257 89.3023C80.0955 89.4435 80.7784 89.5156 81.4609 89.5156C81.9952 89.5156 82.5296 89.4709 83.0579 89.3842L81.3323 91.2091L79.4257 89.3023ZM79.9897 92.6288L76.8923 95.9044C76.0396 94.2722 75.3068 92.5734 74.7059 90.8344L75.869 88.508L79.9897 92.6288ZM86.8873 88.1771L88.2158 90.8343C87.6139 92.5763 86.881 94.2756 86.0291 95.9059L82.7139 92.5906L86.8873 88.1771ZM78.5312 82.6602C78.5312 82.121 78.9686 81.6836 79.5078 81.6836H81.4609C81.9994 81.6836 82.4375 82.1217 82.4375 82.6602C82.4375 83.1994 82.0001 83.6367 81.4609 83.6367H79.5078C78.9693 83.6367 78.5312 83.1986 78.5312 82.6602ZM60.9922 104.047C61.3792 99.2091 64.5988 94.8118 68.9318 93.3669L73.0426 91.997C73.7957 94.0795 74.7287 96.1036 75.8222 98.0263C75.824 98.0296 75.8258 98.0329 75.8276 98.0361C75.8276 98.0362 75.8277 98.0362 75.8277 98.0363C76.6267 99.4415 77.5259 100.815 78.5008 102.118L79.7021 104.047H60.9922ZM81.4609 103.176L80.1365 101.05C80.1217 101.026 80.1059 101.003 80.0891 100.981C79.2982 99.9258 78.5605 98.8226 77.8887 97.6934L81.3714 94.0104L85.0411 97.6801C84.3647 98.8175 83.6245 99.9253 82.833 100.98C82.7852 101.044 82.853 100.944 81.4609 103.176ZM83.2197 104.047L84.421 102.118C85.4002 100.81 86.3059 99.4256 87.1128 98.0039C87.1177 97.9953 87.1223 97.9865 87.1271 97.9779C87.1277 97.9769 87.1283 97.9759 87.1289 97.9748C88.2085 96.0705 89.1317 94.064 89.8793 91.997L93.9899 93.3669C98.323 94.8118 101.543 99.2091 101.93 104.047H83.2197Z" fill="white"/>
</g>
</g>
<defs>
<linearGradient id="paint0_linear_6_95" x1="81.1394" y1="26" x2="81.1394" y2="138.279" gradientUnits="userSpaceOnUse">
<stop stop-color="#040A57"/>
<stop offset="1" stop-color="#3A23E6"/>
</linearGradient>
</defs>
</svg>
