<svg width="20" height="20" viewBox="0 0 20 20" fill="none" xmlns="http://www.w3.org/2000/svg">
<g id="Group 34905">
<circle id="Ellipse 17" cx="10" cy="10" r="10" fill="#969AF7"/>
<path id="check" d="M5.56522 10.3633C5.49179 10.2906 5.45508 10.1815 5.45508 10.1087C5.45508 10.036 5.49179 9.92692 5.56522 9.85419L6.0792 9.3451C6.22606 9.19964 6.44634 9.19964 6.59319 9.3451L6.6299 9.38146L8.64913 11.5269C8.72256 11.5996 8.8327 11.5996 8.90613 11.5269L13.8257 6.47237H13.8624C14.0093 6.32692 14.2296 6.32692 14.3764 6.47237L14.8904 6.98146C15.0372 7.12692 15.0372 7.3451 14.8904 7.49055L9.01627 13.5269C8.94284 13.5996 8.86941 13.636 8.75927 13.636C8.64913 13.636 8.57571 13.5996 8.50228 13.5269L5.63864 10.4724L5.56522 10.3633Z" fill="white"/>
</g>
</svg>
